<?xml version="1.0" encoding="UTF-8"?>
<svg width="183px" height="156px" viewBox="0 0 183 156" xmlns="http://www.w3.org/2000/svg" xmlns:xlink="http://www.w3.org/1999/xlink" version="1.1">
 <!-- Generated by Pixelmator Pro 2.0.5 -->
 <g id="New-Group-copy">
  <g id="New-Group">
   <path id="Shape" d="M174.082 78.501 L174.082 128.834 161.499 128.834 161.499 141.417 148.916 141.417 148.916 154 98.583 154 98.583 141.417 86 141.417 86 78.501 98.583 78.501 98.583 65.918 161.499 65.918 161.499 78.501 Z M148.916 78.501 L111.166 78.501 111.166 141.417 136.333 141.417 136.333 128.834 123.749 128.834 123.749 116.251 148.916 116.251 Z M161.499 154 L161.499 141.417 174.082 141.417 174.082 154 Z" fill="#000000" fill-opacity="1" stroke="none"/>
   <path id="Shape-1" d="M12.628 92.626 L12.628 79.998 0 79.998 0 67.37 25.255 67.37 25.255 79.998 63.138 79.998 63.138 54.743 12.628 54.743 12.628 42.115 0 42.115 0 16.86 12.628 16.86 12.628 4.232 75.766 4.232 75.766 16.86 88.394 16.86 88.394 29.487 63.138 29.487 63.138 16.86 25.255 16.86 25.255 42.115 75.766 42.115 75.766 54.743 88.394 54.743 88.394 79.998 75.766 79.998 75.766 92.626 Z" fill="#000000" fill-opacity="1" stroke="none"/>
  </g>
  <path id="SCIENCE---QUEST-copy" d="M182 78.555 L182 127.331 169.806 127.331 169.806 139.525 157.612 139.525 157.612 151.719 108.836 151.719 108.836 139.525 96.642 139.525 96.642 78.555 108.836 78.555 108.836 66.361 169.806 66.361 169.806 78.555 Z M157.612 78.555 L121.03 78.555 121.03 139.525 145.418 139.525 145.418 127.331 133.224 127.331 133.224 115.137 157.612 115.137 Z M169.806 151.719 L169.806 139.525 182 139.525 182 151.719 Z M23.194 88.59 L23.194 76.396 11 76.396 11 64.202 35.388 64.202 35.388 76.396 71.97 76.396 71.97 52.008 23.194 52.008 23.194 39.814 11 39.814 11 15.426 23.194 15.426 23.194 3.232 84.164 3.232 84.164 15.426 96.358 15.426 96.358 27.62 71.97 27.62 71.97 15.426 35.388 15.426 35.388 39.814 84.164 39.814 84.164 52.008 96.358 52.008 96.358 76.396 84.164 76.396 84.164 88.59 Z" fill="#ffffff" fill-opacity="1" stroke="none"/>
 </g>
</svg>
