<?xml version="1.0" encoding="UTF-8"?>
<svg width="603px" height="189px" viewBox="0 0 603 189" xmlns="http://www.w3.org/2000/svg" xmlns:xlink="http://www.w3.org/1999/xlink" version="1.1">
 <!-- Generated by Pixelmator Pro 2.0.6 -->
 <g id="New-Group">
  <path id="SCIENCE---QUEST-copy" d="M191.428 176.918 L191.428 166.738 181.248 166.738 181.248 115.84 191.428 115.84 191.428 105.66 242.326 105.66 242.326 115.84 252.506 115.84 252.506 156.558 242.326 156.558 242.326 166.738 232.146 166.738 232.146 176.918 191.428 176.918 Z M242.326 166.738 L252.506 166.738 252.506 176.918 242.326 176.918 242.326 166.738 Z M272.051 176.918 L272.051 166.738 261.871 166.738 261.871 105.66 282.23 105.66 282.23 166.738 312.77 166.738 312.77 105.66 333.129 105.66 333.129 166.738 322.949 166.738 322.949 176.918 272.051 176.918 Z M342.494 176.918 L342.494 105.66 413.752 105.66 413.752 115.84 362.854 115.84 362.854 136.199 403.572 136.199 403.572 146.379 362.854 146.379 362.854 166.738 413.752 166.738 413.752 176.918 342.494 176.918 Z M433.299 176.918 L433.299 166.738 423.117 166.738 423.117 156.558 443.479 156.558 443.479 166.738 474.018 166.738 474.018 146.379 433.299 146.379 433.299 136.199 423.117 136.199 423.117 115.84 433.299 115.84 433.299 105.66 484.197 105.66 484.197 115.84 494.377 115.84 494.377 126.019 474.018 126.019 474.018 115.84 443.479 115.84 443.479 136.199 484.197 136.199 484.197 146.379 494.377 146.379 494.377 166.738 484.197 166.738 484.197 176.918 433.299 176.918 Z M534.281 176.918 L534.281 115.84 513.922 115.84 513.922 105.66 575 105.66 575 115.84 554.641 115.84 554.641 176.918 534.281 176.918 Z M201.607 166.738 L221.967 166.738 221.967 156.558 211.787 156.558 211.787 146.379 232.146 146.379 232.146 115.84 201.607 115.84 201.607 166.738 Z M191.428 94.258 L191.428 84.078 211.787 84.078 211.787 33.18 191.428 33.18 191.428 23 252.506 23 252.506 33.18 232.146 33.18 232.146 84.078 252.506 84.078 252.506 94.258 191.428 94.258 Z M261.871 94.258 L261.871 23 333.129 23 333.129 33.18 282.23 33.18 282.23 53.539 322.949 53.539 322.949 63.719 282.23 63.719 282.23 84.078 333.129 84.078 333.129 94.258 261.871 94.258 Z M342.494 94.258 L342.494 23 362.854 23 362.854 33.18 373.033 33.18 373.033 43.359 383.213 43.359 383.213 53.539 393.393 53.539 393.393 23 413.752 23 413.752 94.258 393.393 94.258 393.393 73.898 383.213 73.898 383.213 63.719 373.033 63.719 373.033 53.539 362.854 53.539 362.854 94.258 342.494 94.258 Z M443.479 94.258 L443.479 84.078 433.299 84.078 433.299 73.898 423.117 73.898 423.117 43.359 433.299 43.359 433.299 33.18 443.479 33.18 443.479 23 484.197 23 484.197 33.18 494.377 33.18 494.377 43.359 474.018 43.359 474.018 33.18 453.658 33.18 453.658 43.359 443.479 43.359 443.479 73.898 453.658 73.898 453.658 84.078 474.018 84.078 474.018 73.898 494.377 73.898 494.377 84.078 484.197 84.078 484.197 94.258 443.479 94.258 Z M503.742 94.258 L503.742 23 575 23 575 33.18 524.102 33.18 524.102 53.539 564.82 53.539 564.82 63.719 524.102 63.719 524.102 84.078 575 84.078 575 94.258 503.742 94.258 Z M120.983 94.258 L120.983 84.079 110.803 84.079 110.803 73.899 100.624 73.899 100.624 43.359 110.803 43.359 110.803 33.18 120.983 33.18 120.983 23 161.702 23 161.702 33.18 171.882 33.18 171.882 43.359 151.522 43.359 151.522 33.18 131.163 33.18 131.163 43.359 120.983 43.359 120.983 73.899 131.163 73.899 131.163 84.079 151.522 84.079 151.522 73.899 171.882 73.899 171.882 84.079 161.702 84.079 161.702 94.258 Z M30.18 94.258 L30.18 84.079 20 84.079 20 73.899 40.36 73.899 40.36 84.079 70.899 84.079 70.899 63.719 30.18 63.719 30.18 53.539 20 53.539 20 33.18 30.18 33.18 30.18 23 81.079 23 81.079 33.18 91.258 33.18 91.258 43.359 70.899 43.359 70.899 33.18 40.36 33.18 40.36 53.539 81.079 53.539 81.079 63.719 91.258 63.719 91.258 84.079 81.079 84.079 81.079 94.258 Z" fill="#000000" fill-opacity="1" stroke="none"/>
  <path id="SCIENCE---QUEST-copy-1" d="M200.428 173.918 L200.428 163.738 190.248 163.738 190.248 112.84 200.428 112.84 200.428 102.66 251.326 102.66 251.326 112.84 261.506 112.84 261.506 153.558 251.326 153.558 251.326 163.738 241.146 163.738 241.146 173.918 200.428 173.918 Z M251.326 163.738 L261.506 163.738 261.506 173.918 251.326 173.918 251.326 163.738 Z M281.051 173.918 L281.051 163.738 270.871 163.738 270.871 102.66 291.23 102.66 291.23 163.738 321.77 163.738 321.77 102.66 342.129 102.66 342.129 163.738 331.949 163.738 331.949 173.918 281.051 173.918 Z M351.494 173.918 L351.494 102.66 422.752 102.66 422.752 112.84 371.854 112.84 371.854 133.199 412.572 133.199 412.572 143.379 371.854 143.379 371.854 163.738 422.752 163.738 422.752 173.918 351.494 173.918 Z M442.299 173.918 L442.299 163.738 432.117 163.738 432.117 153.558 452.479 153.558 452.479 163.738 483.018 163.738 483.018 143.379 442.299 143.379 442.299 133.199 432.117 133.199 432.117 112.84 442.299 112.84 442.299 102.66 493.197 102.66 493.197 112.84 503.377 112.84 503.377 123.019 483.018 123.019 483.018 112.84 452.479 112.84 452.479 133.199 493.197 133.199 493.197 143.379 503.377 143.379 503.377 163.738 493.197 163.738 493.197 173.918 442.299 173.918 Z M543.281 173.918 L543.281 112.84 522.922 112.84 522.922 102.66 584 102.66 584 112.84 563.641 112.84 563.641 173.918 543.281 173.918 Z M210.607 163.738 L230.967 163.738 230.967 153.558 220.787 153.558 220.787 143.379 241.146 143.379 241.146 112.84 210.607 112.84 210.607 163.738 Z M200.428 91.258 L200.428 81.078 220.787 81.078 220.787 30.18 200.428 30.18 200.428 20 261.506 20 261.506 30.18 241.146 30.18 241.146 81.078 261.506 81.078 261.506 91.258 200.428 91.258 Z M270.871 91.258 L270.871 20 342.129 20 342.129 30.18 291.23 30.18 291.23 50.539 331.949 50.539 331.949 60.719 291.23 60.719 291.23 81.078 342.129 81.078 342.129 91.258 270.871 91.258 Z M351.494 91.258 L351.494 20 371.854 20 371.854 30.18 382.033 30.18 382.033 40.359 392.213 40.359 392.213 50.539 402.393 50.539 402.393 20 422.752 20 422.752 91.258 402.393 91.258 402.393 70.898 392.213 70.898 392.213 60.719 382.033 60.719 382.033 50.539 371.854 50.539 371.854 91.258 351.494 91.258 Z M452.479 91.258 L452.479 81.078 442.299 81.078 442.299 70.898 432.117 70.898 432.117 40.359 442.299 40.359 442.299 30.18 452.479 30.18 452.479 20 493.197 20 493.197 30.18 503.377 30.18 503.377 40.359 483.018 40.359 483.018 30.18 462.658 30.18 462.658 40.359 452.479 40.359 452.479 70.898 462.658 70.898 462.658 81.078 483.018 81.078 483.018 70.898 503.377 70.898 503.377 81.078 493.197 81.078 493.197 91.258 452.479 91.258 Z M512.742 91.258 L512.742 20 584 20 584 30.18 533.102 30.18 533.102 50.539 573.82 50.539 573.82 60.719 533.102 60.719 533.102 81.078 584 81.078 584 91.258 512.742 91.258 Z M129.983 91.258 L129.983 81.079 119.803 81.079 119.803 70.899 109.624 70.899 109.624 40.359 119.803 40.359 119.803 30.18 129.983 30.18 129.983 20 170.702 20 170.702 30.18 180.882 30.18 180.882 40.359 160.522 40.359 160.522 30.18 140.163 30.18 140.163 40.359 129.983 40.359 129.983 70.899 140.163 70.899 140.163 81.079 160.522 81.079 160.522 70.899 180.882 70.899 180.882 81.079 170.702 81.079 170.702 91.258 Z M39.18 91.258 L39.18 81.079 29 81.079 29 70.899 49.36 70.899 49.36 81.079 79.899 81.079 79.899 60.719 39.18 60.719 39.18 50.539 29 50.539 29 30.18 39.18 30.18 39.18 20 90.079 20 90.079 30.18 100.258 30.18 100.258 40.359 79.899 40.359 79.899 30.18 49.36 30.18 49.36 50.539 90.079 50.539 90.079 60.719 100.258 60.719 100.258 81.079 90.079 81.079 90.079 91.258 Z" fill="#ffffff" fill-opacity="1" stroke="none"/>
 </g>
</svg>
